<?xml version="1.0" encoding="utf-8"?>
<!-- Generator: Adobe Illustrator 24.0.2, SVG Export Plug-In . SVG Version: 6.00 Build 0)  -->
<svg version="1.1" id="Слой_1" xmlns="http://www.w3.org/2000/svg" xmlns:xlink="http://www.w3.org/1999/xlink" x="0px" y="0px"
	 viewBox="0 0 65 65" style="enable-background:new 0 0 65 65;" xml:space="preserve">
<style type="text/css">
	.st0{fill:url(#SVGID_1_);}
	.st1{fill:url(#SVGID_2_);stroke:#FFFFFF;}
</style>
<linearGradient id="SVGID_1_" gradientUnits="userSpaceOnUse" x1="6.5448" y1="52.9949" x2="63.3437" y2="7.9079" gradientTransform="matrix(1 0 0 -1 0 64.8898)">
	<stop  offset="0" style="stop-color:#9013FE"/>
	<stop  offset="1" style="stop-color:#6610F2"/>
</linearGradient>
<path class="st0" d="M7.2,13.4C7,9.8,9.8,6.6,13.5,6.6h38c3.7,0,6.5,3.2,6.3,6.8c-0.1,3.4,0,7.8,1.1,11.3c1.1,3.6,3,5.8,6,6.1v3.3
	c-3.1,0.3-4.9,2.6-6,6.1c-1.1,3.6-1.3,8-1.1,11.3c0.1,3.5-2.6,6.8-6.3,6.8h-38c-3.7,0-6.5-3.2-6.3-6.8c0.1-3.4,0-7.8-1.1-11.3
	c-1.1-3.6-3-5.8-6-6.1v-3.3c3.1-0.3,4.9-2.6,6-6.1C7.1,21.1,7.3,16.8,7.2,13.4z"/>
<linearGradient id="SVGID_2_" gradientUnits="userSpaceOnUse" x1="24.0128" y1="44.029" x2="36.7089" y2="22.5572" gradientTransform="matrix(1 0 0 -1 0 64.8898)">
	<stop  offset="0" style="stop-color:#FFFFFF"/>
	<stop  offset="1" style="stop-color:#F1E5FC"/>
</linearGradient>
<path class="st1" d="M33.9,46.3c6,0,9.6-2.9,9.6-7.8c0-3.7-2.6-6.3-6.4-6.7v-0.2c2.8-0.5,5-3.1,5-6c0-4.2-3.3-6.9-8.3-6.9H22.6v27.5
	H33.9z M27,22.2h5.8c3.2,0,5,1.4,5,4c0,2.7-2.1,4.3-5.9,4.3H27C27,30.4,27,22.2,27,22.2z M27,42.8v-9.1h5.8c4.1,0,6.3,1.5,6.3,4.5
	c0,3-2.1,4.6-6,4.6H27z"/>
</svg>
